<?xml version="1.0" encoding="UTF-8"?>
<svg width="50px" height="50px" viewBox="0 0 50 50" version="1.1" xmlns="http://www.w3.org/2000/svg" xmlns:xlink="http://www.w3.org/1999/xlink">
    <!-- Generator: Sketch 47.1 (45422) - http://www.bohemiancoding.com/sketch -->
    <title>icn plane copy 3</title>
    <desc>Created with Sketch.</desc>
    <defs></defs>
    <g id="final" stroke="none" stroke-width="1" fill="none" fill-rule="evenodd">
        <g id="Flight-info" transform="translate(-172.000000, -413.000000)" fill="#666666">
            <g id="Group-2" transform="translate(32.000000, 238.000000)">
                <path d="M143.978261,200.565217 L140,209.65942 L140.565217,210.224638 L149.65942,201.702899 L150.797101,201.137681 L151.362319,201.137681 L151.934783,201.702899 L162.731884,201.702899 L165,203.405797 L155.913043,223.862319 L155.913043,224.434783 L156.478261,225 L157.043478,224.434783 L164.434783,216.478261 L168.978261,216.478261 L168.978261,215.34058 L165,215.34058 L170.115942,209.094203 L174.094203,209.094203 L174.094203,207.956522 L171.253623,207.956522 L176.362319,202.275362 L184.891304,202.275362 L188.297101,201.702899 L189.434783,200.565217 L190,200 L140,200 L143.978261,200.565217 Z M143.978261,199.434783 L140,190.34058 L140.565217,189.775362 L149.65942,198.297101 L150.797101,198.862319 L151.362319,198.862319 L151.934783,198.297101 L162.731884,198.297101 L165,196.594203 L155.913043,176.137681 L155.913043,175.565217 L156.478261,175 L157.043478,175.565217 L164.434783,183.521739 L168.978261,183.521739 L168.978261,184.65942 L165,184.65942 L170.115942,190.905797 L174.094203,190.905797 L174.094203,192.043478 L171.253623,192.043478 L176.362319,197.724638 L184.891304,197.724638 L188.297101,198.297101 L189.434783,199.434783 L190,200 L140,200 L143.978261,199.434783 Z" id="icn-plane-copy-3"></path>
            </g>
        </g>
    </g>
</svg>