<?xml version="1.0" encoding="UTF-8"?>
<svg width="88px" height="39px" viewBox="0 0 88 39" version="1.1" xmlns="http://www.w3.org/2000/svg" xmlns:xlink="http://www.w3.org/1999/xlink">
    <!-- Generator: Sketch 47.1 (45422) - http://www.bohemiancoding.com/sketch -->
    <title>bus_icn</title>
    <desc>Created with Sketch.</desc>
    <defs></defs>
    <g id="final" stroke="none" stroke-width="1" fill="none" fill-rule="evenodd">
        <g id="iOS/Itinerary/Timeline_bus" transform="translate(0.000000, -9.000000)" fill="#666666">
            <path d="M12.2431171,42.9650227 C7.23369836,42.5210615 0,38 0,38 L0,33 C0,33 78.9613958,32.972445 79,33 C81,35 85,37 85,35 C85,33 81,32 79,32 L0,32 L2,27 L0,27 C0,15 1.76260398,11.8584713 1.83645544,11.6699369 C1.93979951,11.4079224 2.11627571,11.186032 2.34574272,11.0269863 C2.46778944,10.9435961 5.33145144,9 10.7919032,9 L43.6222306,9 C51.7374982,9 60.4507707,9.51315191 67.5215677,10.4069982 C74.107295,11.2413837 77.0954015,12.0743189 78.5120066,12.7392652 C81.8830377,13.35031 83.0073541,13.8774811 83.8911737,15.2977734 L85.372279,18.8891116 C85.4679502,19.1271967 85.4135207,19.4032304 85.2332081,19.5835466 L84.8399731,19.9797105 C84.719365,20.1000825 84.5601528,20.1629273 84.2705017,20.1527754 C84.0654919,20.1126514 83.8926124,19.9671416 83.8142052,19.7742564 C83.8142052,19.7742564 81.8782421,15.0700819 81.8717681,15.0050617 C81.4912413,14.7838964 80.9704447,14.5900444 80.2180231,14.3988512 C82.5843867,18.3370443 85.638432,24.8634761 87.1094666,30.6174003 C87.2300746,31.1037223 87.0996357,31.5262327 86.984063,31.8208781 C87.1020335,32.2670762 87.2276769,32.6920036 87.3509225,33.1094381 C87.6842131,34.2362936 88,35.2995791 88,36.4087897 C88,39.6891453 82.15939,42.476211 72.764619,42.9341287 C72.9183926,42.3147737 73,41.6669171 73,41 C73,36.581722 69.418278,33 65,33 C60.581722,33 57,36.581722 57,41 C57,41.6905991 57.087506,42.3607602 57.252035,43 L27.747965,43 C27.912494,42.3607602 28,41.6905991 28,41 C28,36.581722 24.418278,33 20,33 C15.581722,33 12,36.581722 12,41 C12,41.6780143 12.0843458,42.3363287 12.2431171,42.9650227 Z M7,17 L7,20 C7,22 15,25 20,25 L58,25 C62.1376778,25 64.8981156,25.7971403 67,27 C66.1450805,26.1826462 65.2787905,25.2845755 64.3807578,24.3536578 C59.9789527,19.7858976 55.0268628,14.6556655 47.1028083,14 L9.99782792,14 C8.3342922,14 7,15.3431458 7,17 Z M56,14 L62.0116752,14 C72.6175559,14 76.6735687,15.0355948 77.5689751,16.8109694 C78.7722589,19.2041608 81.3946728,24.5334368 83,29 L78,29 C74.7402465,29 71.6348622,26.1933951 68.3383437,22.9389457 C65.078353,19.7247466 61.2576363,15.9611076 56,14 Z M65,48 C68.8659932,48 72,44.8659932 72,41 C72,37.1340068 68.8659932,34 65,34 C61.1340068,34 58,37.1340068 58,41 C58,44.8659932 61.1340068,48 65,48 Z M20,48 C16.1340068,48 13,44.8659932 13,41 C13,37.1340068 16.1340068,34 20,34 C23.8659932,34 27,37.1340068 27,41 C27,44.8659932 23.8659932,48 20,48 Z M20,44 C21.6568542,44 23,42.6568542 23,41 C23,39.3431458 21.6568542,38 20,38 C18.3431458,38 17,39.3431458 17,41 C17,42.6568542 18.3431458,44 20,44 Z M65,44 C66.6568542,44 68,42.6568542 68,41 C68,39.3431458 66.6568542,38 65,38 C63.3431458,38 62,39.3431458 62,41 C62,42.6568542 63.3431458,44 65,44 Z" id="bus_icn"></path>
        </g>
    </g>
</svg>