<?xml version="1.0" encoding="UTF-8"?>
<svg width="58px" height="58px" viewBox="0 0 58 58" version="1.1" xmlns="http://www.w3.org/2000/svg" xmlns:xlink="http://www.w3.org/1999/xlink">
    <!-- Generator: Sketch 47.1 (45422) - http://www.bohemiancoding.com/sketch -->
    <title>BUS_Tailfin</title>
    <desc>Created with Sketch.</desc>
    <defs></defs>
    <g id="final" stroke="none" stroke-width="1" fill="none" fill-rule="evenodd">
        <g id="BUS_Tailfin" fill-rule="nonzero" fill="#666666">
            <path d="M29,0.14004878 C13.0570732,0.14004878 0.13297561,13.0641463 0.13297561,29.0070732 C0.13297561,44.9507073 13.0577805,57.8740976 29,57.8740976 C44.9429268,57.8740976 57.8670244,44.9507073 57.8670244,29.0070732 C57.8670244,13.0648537 44.9429268,0.14004878 29,0.14004878 Z M48.5028537,20.9047561 L48.5028537,24.4172927 C48.5028537,25.3877317 47.7156098,26.1742683 46.745878,26.1742683 C45.775439,26.1742683 44.9896098,25.3877317 44.9896098,24.4172927 L44.9896098,20.9047561 L44.9896098,19.5813659 L43.4087561,19.258122 C43.5070732,20.0644634 43.5594146,20.9832683 43.5594146,22.0392927 L43.5594146,24.4682195 L43.5594146,28.4581951 L43.5594146,44.3020976 L43.5587073,44.3020976 L43.5297073,44.3020976 L43.5282927,44.3020976 L40.0886098,44.3020976 L40.0886098,42.7410488 L28.9992927,42.7410488 L17.9106829,42.7410488 L17.9106829,44.3020976 L14.4702927,44.3020976 L14.4702927,44.3020976 L14.4412927,44.3020976 L14.4412927,44.3020976 L14.4412927,28.4581951 L14.4412927,24.4682195 L14.4412927,22.0392927 C14.4412927,20.9832683 14.4936341,20.0644634 14.5905366,19.258122 L13.0089756,19.5813659 L13.0089756,20.9047561 L13.0089756,24.4172927 C13.0089756,25.3877317 12.2231463,26.1742683 11.2527073,26.1742683 C10.2829756,26.1742683 9.49714634,25.3877317 9.49714634,24.4172927 L9.49714634,20.9047561 C9.49714634,20.8184634 9.51058537,20.7357073 9.52190244,20.6536585 L9.51978049,20.6536585 L9.49714634,19.1484878 L15.240561,16.5597073 L15.8212683,16.2972927 C16.9253902,14.7093659 18.6165854,14.0586341 20.6006098,13.8280488 C20.677,13.8188537 20.7512683,13.8110732 20.8276585,13.8025854 C20.9613415,13.7891463 21.0957317,13.775 21.2329512,13.7658049 C21.4210976,13.7516585 21.6120732,13.7417561 21.8037561,13.7339756 C21.8942927,13.7297317 21.9869512,13.7269024 22.0781951,13.7240732 C22.2918049,13.7184146 22.506122,13.7141707 22.7232683,13.7134634 C22.7388293,13.7134634 22.7536829,13.7127561 22.7692439,13.7127561 L22.7968293,13.7127561 L22.7982439,13.7127561 L28.9992927,13.7127561 L35.2024634,13.7127561 L35.2024634,13.7127561 L35.2307561,13.7127561 C35.2463171,13.7127561 35.2611707,13.7134634 35.2760244,13.7134634 C35.4931707,13.7141707 35.7060732,13.7184146 35.9196829,13.7240732 C36.0109268,13.7261951 36.1042927,13.7297317 36.1955366,13.7339756 C36.3872195,13.7417561 36.5774878,13.7523659 36.7663415,13.7658049 C36.9021463,13.7757073 37.0372439,13.7891463 37.1709268,13.8025854 C37.2466098,13.8103659 37.3237073,13.8188537 37.3979756,13.8280488 C39.382,14.0586341 41.0717805,14.7100732 42.1780244,16.2972927 L42.7587317,16.5597073 L48.5028537,19.1484878 L48.4788049,20.6536585 L48.4766829,20.6536585 C48.4887073,20.7357073 48.5028537,20.8184634 48.5028537,20.9047561 Z" id="Shape"></path>
            <g id="Group" transform="translate(16.268293, 17.682927)">
                <path d="M0.0954878049,17.8159024 C0.0954878049,19.2029512 0.0954878049,20.6338537 0.0954878049,20.6338537 L4.33090244,21.5887317 L4.30260976,19.5509512 C4.30260976,19.5509512 1.05036585,18.6830732 0.0954878049,17.8159024 Z" id="Shape"></path>
                <polygon id="Shape" points="9.23260976 21.5880244 9.23260976 23.5833659 12.731 23.5833659 16.2300976 23.5833659 16.2300976 21.5880244 12.731 21.5880244"></polygon>
                <path d="M9.90456098,16.7740244 L12.731,16.7740244 L15.5581463,16.7740244 C15.5581463,16.7740244 22.0633415,17.1213171 24.5354146,14.5622439 C24.5354146,13.6950732 24.5354146,0.68397561 24.5354146,0.68397561 L12.731,0.68397561 L0.927292683,0.68397561 C0.927292683,0.68397561 0.927292683,13.6950732 0.927292683,14.5622439 C3.39936585,17.1213171 9.90456098,16.7740244 9.90456098,16.7740244 Z" id="Shape"></path>
                <path d="M21.1593902,19.5509512 L21.1310976,21.5887317 L25.3665122,20.6338537 C25.3665122,20.6338537 25.3665122,19.2029512 25.3665122,17.8159024 C24.4123415,18.6830732 21.1593902,19.5509512 21.1593902,19.5509512 Z" id="Shape"></path>
            </g>
        </g>
    </g>
</svg>