<?xml version="1.0" encoding="UTF-8"?>
<svg width="79px" height="65px" viewBox="0 0 79 65" version="1.1" xmlns="http://www.w3.org/2000/svg" xmlns:xlink="http://www.w3.org/1999/xlink">
    <!-- Generator: Sketch 47.1 (45422) - http://www.bohemiancoding.com/sketch -->
    <title>Page 1</title>
    <desc>Created with Sketch.</desc>
    <defs></defs>
    <g id="final" stroke="none" stroke-width="1" fill="none" fill-rule="evenodd">
        <g id="1-stop,1connection" transform="translate(-130.000000, -981.000000)" fill="#666666">
            <g id="Page-1" transform="translate(130.000000, 981.000000)">
                <polygon id="Fill-1" points="20.3476765 0 20.3476765 13.6818529 25.1123824 13.6818529 25.1123824 4.76470588 50.0722941 4.76470588 50.0722941 0"></polygon>
                <polygon id="Fill-2" points="54.5463529 47.2156147 54.5463529 59.9612029 35.0587059 59.9612029 35.0587059 64.7282912 59.3134412 64.7282912 59.3134412 47.2156147"></polygon>
                <g id="Group-7" transform="translate(0.000000, 0.499579)">
                    <path d="M43.1610882,47.8447941 L31.2016765,38.7132353 L25.6007647,34.1939118 C25.6007647,34.1939118 24.6692647,33.8055882 24.6692647,31.7734412 C24.6692647,29.7484412 24.8241176,28.2594706 24.3524118,25.8437647 C23.8878529,23.4256765 23.1802941,22.1725588 22.4727353,22.1725588 C21.7794706,22.1725588 20.9194412,23.7377647 20.5287353,25.6865294 C20.1380294,27.6352941 20.3715,31.6948235 20.3715,31.6948235 C20.3715,31.6948235 20.4548824,32.9455588 19.3518529,34.0342941 L13.5817941,38.6417647 L7.28523529,43.2968824 L1.48420588,47.8447941 C1.48420588,47.8447941 0,48.7882059 0,50.1199412 L0.0786176471,51.2825294 C0.0786176471,51.2825294 8.36205882,47.7685588 11.7902647,46.5273529 C15.2232353,45.2766176 18.1082647,43.8662647 19.7473235,43.8662647 L20.3715,45.7411765 L20.2905,51.8280882 C20.2905,51.8280882 20.5287353,53.6291471 20.9980588,55.8923824 L15.4519412,60.4903235 C15.4519412,60.4903235 14.1249706,61.5862059 13.7390294,62.6797059 L13.5817941,64.2401471 L21.5436176,61.1168824 L22.1654118,62.6034706 L22.3393235,64.2401471 L22.5489706,64.3235294 L22.6371176,62.6797059 L23.1802941,61.0358824 L31.4637353,64.3163824 L31.1421176,62.9941765 C31.1421176,62.9941765 30.7514118,61.5075882 29.8151471,60.7261765 L24.1165588,56.0472353 C24.1165588,56.0472353 24.7455,53.0835882 24.7455,51.6732353 L24.7455,45.7411765 L25.5173824,43.8662647 C25.5173824,43.8662647 28.4905588,44.3355882 34.1843824,46.9156765 C39.8853529,49.491 44.5714412,51.2039118 44.5714412,51.2039118 L44.5714412,50.1199412 C44.5714412,50.1199412 44.2688824,48.762 43.1610882,47.8447941" id="Fill-3"></path>
                    <path d="M77.5424912,25.8683029 L65.5878441,16.7343618 L59.9821676,12.2126559 C59.9821676,12.2126559 59.0506676,11.8243324 59.0506676,9.79456765 C59.0506676,7.76718529 59.2055206,6.28059706 58.7338147,3.86489118 C58.2692559,1.44680294 57.5664618,0.193685294 56.8589029,0.193685294 C56.1608735,0.193685294 55.3008441,1.76127353 54.9101382,3.70765588 C54.5194324,5.65642059 54.7576676,9.71356765 54.7576676,9.71356765 C54.7576676,9.71356765 54.8362853,10.9643029 53.7332559,12.0554206 L47.9679618,16.6628912 L41.6714029,21.3180088 L35.8703735,25.8683029 C35.8703735,25.8683029 34.3814029,26.8093324 34.3814029,28.1386853 L34.4600206,29.3036559 C34.4600206,29.3036559 42.7434618,25.7896853 46.1716676,24.5508618 C49.6094029,23.2953618 52.4896676,21.8897735 54.1287265,21.8897735 L54.7576676,23.7646853 L54.6766676,29.8515971 C54.6766676,29.8515971 54.9101382,31.6502735 55.3794618,33.9135088 L49.8333441,38.51145 C49.8333441,38.51145 48.5111382,39.6073324 48.1204324,40.7032147 L47.9679618,42.2612735 L55.9297853,39.1380088 L56.5468147,40.6245971 L56.7254912,42.2612735 L56.9303735,42.3446559 L57.0185206,40.7032147 L57.5664618,39.0593912 L65.8451382,42.3375088 L65.5282853,41.0153029 C65.5282853,41.0153029 65.1375794,39.5287147 64.19655,38.7473029 L58.5027265,34.0683618 C58.5027265,34.0683618 59.1269029,31.1023324 59.1269029,29.6943618 L59.1269029,23.7646853 L59.8987853,21.8897735 C59.8987853,21.8897735 62.8719618,22.3567147 68.57055,24.9368029 C74.2667559,27.5145088 78.9576088,29.2274206 78.9576088,29.2274206 L78.9576088,28.1386853 C78.9576088,28.1386853 78.65505,26.7831265 77.5424912,25.8683029" id="Fill-5"></path>
                </g>
            </g>
        </g>
    </g>
</svg>