<?xml version="1.0" encoding="UTF-8"?>
<svg width="58px" height="58px" viewBox="0 0 58 58" version="1.1" xmlns="http://www.w3.org/2000/svg" xmlns:xlink="http://www.w3.org/1999/xlink">
    <!-- Generator: Sketch 47.1 (45422) - http://www.bohemiancoding.com/sketch -->
    <title>Train_Tailfin</title>
    <desc>Created with Sketch.</desc>
    <defs></defs>
    <g id="final" stroke="none" stroke-width="1" fill="none" fill-rule="evenodd">
        <g id="Train_Tailfin" fill-rule="nonzero" fill="#666666">
            <polygon id="Shape" points="28.9051152 45 23.6201196 45 22 47.7093464 28.9051152 47.7619048 35.8095238 47.7093464 34.1886976 45"></polygon>
            <polygon id="Shape" points="33.6666667 42.3809524 32.8346063 41 28.8333333 41 24.8313504 41 24 42.3809524 28.8333333 42.3809524"></polygon>
            <polygon id="Shape" points="23.5238095 34.2923704 18 31 18 34.8242875 23.5238095 36.5238095"></polygon>
            <path d="M29.0724896,13.1428571 C30.2162492,13.134421 31.1428571,12.2113646 31.1428571,11.0717801 C31.1428571,9.93149257 30.2155418,9.00773315 29.0724896,9 C27.926608,9.00773315 27,9.93149257 27,11.0717801 C27,12.2113646 27.926608,13.135124 29.0724896,13.1428571 Z" id="Shape"></path>
            <path d="M29,0 C12.9836323,0 0,12.9836323 0,29 C0,45.0170783 12.9843428,58 29,58 C45.0163677,58 58,45.0170783 58,29 C58,12.9843428 45.0163677,0 29,0 Z M43.2427717,35.0782613 C42.3922131,38.8201509 40.2853572,41.5381015 36.1519406,41.6922964 C36.3686661,41.9445506 43.1745565,49.8589385 43.1745565,49.8589385 L37.504876,49.8589385 L37.34926,49.1831814 L29,49.1831814 L20.65074,49.1831814 L20.495124,49.8589385 L14.8254435,49.8589385 C14.8254435,49.8589385 21.6299128,41.9445506 21.8473488,41.6922964 C17.712511,41.5381015 15.6070764,38.8201509 14.7572283,35.0782613 C14.2889591,25.7746986 18.0088209,11.730888 19.8349995,11.730888 C20.9896844,11.730888 22.8712879,11.730888 25.3327208,11.730888 C25.3327208,9.74838283 26.938621,8.14106145 28.9218367,8.14106145 C28.948128,8.14106145 28.9737087,8.14887778 29,8.14958836 C29.0255807,8.14887778 29.0497403,8.14106145 29.0774527,8.14106145 C31.0592473,8.14106145 32.6658581,9.74838283 32.6658581,11.730888 C35.127291,11.730888 37.0074733,11.730888 38.1614476,11.730888 C39.9897579,11.730888 43.7103303,25.7754092 43.2427717,35.0782613 Z" id="Shape"></path>
            <polygon id="Shape" points="34 36.5238095 39.5238095 34.8242875 39.5238095 31 34 34.2923704"></polygon>
            <path d="M29.0469171,16 L20.4146267,16 L18,27.8835042 C18,27.8835042 21.8023351,30.829151 28.9191665,31.1904762 C28.9577725,31.1904762 29.0040996,31.1876533 29.048321,31.1841248 C29.0918404,31.1876533 29.1360618,31.1904762 29.1767735,31.1904762 C36.292903,30.829151 40.0952381,27.8835042 40.0952381,27.8835042 L37.6806114,16 L29.0469171,16 Z" id="Shape"></path>
        </g>
    </g>
</svg>