<?xml version="1.0" encoding="UTF-8"?>
<svg width="86px" height="38px" viewBox="0 0 86 38" version="1.1" xmlns="http://www.w3.org/2000/svg" xmlns:xlink="http://www.w3.org/1999/xlink">
    <!-- Generator: Sketch 47.1 (45422) - http://www.bohemiancoding.com/sketch -->
    <title>icn_train</title>
    <desc>Created with Sketch.</desc>
    <defs></defs>
    <g id="final" stroke="none" stroke-width="1" fill="none" fill-rule="evenodd">
        <g id="iOS/Itinerary/Timeline_train" transform="translate(0.000000, -9.000000)" fill="#666666">
            <path d="M5,39 L33,39 L33,42.0893678 L33,43.6706897 C33,43.6706897 32,47 28,47 C24,47 23.3778832,44.6899425 23,44 C23,44 15,44 15,44 C14.6209266,44.6899425 14,47 10,47 C6,47 5,43.6706897 5,43.6706897 L5,42.0893678 L5,39 Z M43,39 L69.0087557,39 C70.1001025,39 71,39.8993959 71,41.0088569 L71,42.0893678 L71,43.6706897 C71,43.6706897 70,47 66,47 C62,47 61.3778832,44.6899425 61,44 C61,44 53,44 53,44 C52.6209266,44.6899425 52,47 48,47 C44,47 43,43.6706897 43,43.6706897 L43,42.0893678 L43,39 Z M76.2252291,26.0651412 C77.7262493,27.686019 77.1574726,29 74.9421831,29 L60.0081093,29 C58.8990611,29 58,28.1029399 58,26.9941413 L58,15 L63.9856268,15 C65.086156,15 66.586239,15.6564713 67.3412631,16.4717846 L76.2252291,26.0651412 Z M56,26.9941413 C56,28.1019465 55.1054862,29 54.0059397,29 L41.9940603,29 C40.8927712,29 40,28.1029399 40,26.9941413 L40,17.0058587 C40,15.8980535 40.8945138,15 41.9940603,15 L54.0059397,15 C55.1072288,15 56,15.8970601 56,17.0058587 L56,26.9941413 Z M38,26.9941413 C38,28.1019465 37.1054862,29 36.0059397,29 L23.9940603,29 C22.8927712,29 22,28.1029399 22,26.9941413 L22,17.0058587 C22,15.8980535 22.8945138,15 23.9940603,15 L36.0059397,15 C37.1072288,15 38,15.8970601 38,17.0058587 L38,26.9941413 Z M20,26.9941413 C20,28.1019465 19.1054862,29 18.0059397,29 L5.99406028,29 C4.8927712,29 4,28.1029399 4,26.9941413 L4,17.0058587 C4,15.8980535 4.89451376,15 5.99406028,15 L18.0059397,15 C19.1072288,15 20,15.8970601 20,17.0058587 L20,26.9941413 Z M67.6126602,11.036748 C68.8671927,12.2842562 86,29.9727848 86,30.9727848 C86,32.9727848 86,41.9727848 77.6977712,42 L72,42 L72,40 C72,38.8877296 71.1045558,38 69.9999693,38 L37.1295515,38 L3.28520144e-09,38 L5.16987883e-26,9 L63.4217625,9 C65.3737479,9 66.3551849,9.78631349 67.6126602,11.036748 Z M34,39 L42,39 L42,44 L34,44 L34,39 Z M4.51109372e-10,39 L4,39 L4,44 L4.51109372e-10,44 L4.51109372e-10,39 Z" id="icn_train"></path>
        </g>
    </g>
</svg>