<?xml version="1.0" encoding="UTF-8"?>
<svg width="22px" height="24px" viewBox="0 0 22 24" version="1.1" xmlns="http://www.w3.org/2000/svg" xmlns:xlink="http://www.w3.org/1999/xlink">
    <!-- Generator: Sketch 47.1 (45422) - http://www.bohemiancoding.com/sketch -->
    <title>fares</title>
    <desc>Created with Sketch.</desc>
    <defs></defs>
    <g id="final" stroke="none" stroke-width="1" fill="none" fill-rule="evenodd">
        <g id="Mixed-cabin-_Partially-not-available-" transform="translate(-65.000000, -162.000000)" fill-rule="nonzero" fill="#666666">
            <path d="M70.8226973,168.746231 C71.2316347,168.405829 71.4491849,167.887608 71.4057697,167.357308 C71.3461846,166.879886 71.1248784,166.437274 70.7786918,166.103153 C70.446375,165.786786 70.0230587,165.582824 69.5685416,165.52008 C69.0553563,165.437342 68.538327,165.644049 68.2236246,166.057772 C67.8663964,166.412615 67.6717919,166.899375 67.6859329,167.402689 C67.6884874,167.902889 67.8806372,168.383509 68.2236246,168.747606 C68.5443293,169.136524 69.0191501,169.365644 69.523161,169.374684 C70.0273958,169.365303 70.5022545,169.135663 70.8226973,168.746231 Z M86.8626886,175.960376 C86.9601175,176.033718 87.0122422,176.152563 87.0002057,176.273915 C87.0122422,176.395268 86.9601175,176.514113 86.8626886,176.587454 L78.3490067,185.505436 C78.1702345,185.729589 77.9460817,185.729589 77.7219288,185.505436 L65.311013,172.552703 C65.0991418,172.339836 64.9855279,172.048327 64.9974741,171.748228 L64.9974741,163.143785 C64.9753501,163.007624 65.0200438,162.86913 65.1175869,162.771587 C65.21513,162.674044 65.3536241,162.62935 65.4897852,162.651474 L73.6899283,162.651474 C73.988125,162.654625 74.2750112,162.766056 74.4971535,162.965013 L86.8626886,175.960376 Z" id="fares"></path>
        </g>
    </g>
</svg>