<?xml version="1.0" encoding="UTF-8"?>
<svg width="26px" height="26px" viewBox="0 0 26 26" version="1.1" xmlns="http://www.w3.org/2000/svg" xmlns:xlink="http://www.w3.org/1999/xlink">
    <!-- Generator: Sketch 47.1 (45422) - http://www.bohemiancoding.com/sketch -->
    <title>Page 1 Copy 3</title>
    <desc>Created with Sketch.</desc>
    <defs></defs>
    <g id="final" stroke="none" stroke-width="1" fill="none" fill-rule="evenodd">
        <g id="Outbound" transform="translate(-60.000000, -1003.000000)" fill="#333333">
            <g id="Group" transform="translate(32.000000, 745.000000)">
                <path d="M39.4765625,278.921875 L39.4765625,267.445312 L42.5234375,267.445312 L42.5234375,278.871094 L39.4765625,278.871094 L39.4765625,278.921875 Z M39.4765625,265.921875 L42.5234375,265.921875 L42.5234375,263.128906 L39.4765625,263.128906 L39.4765625,265.921875 Z M49.0234375,263.078125 C46.8229844,260.84375 44.1652969,259.726562 41.0507812,259.726562 C37.9362656,259.726562 35.2617188,260.84375 33.0273438,263.078125 C30.8268906,265.278578 29.7265625,267.936266 29.7265625,271.050781 C29.7265625,274.165297 30.8268906,276.822984 33.0273438,279.023438 C35.2956406,281.223891 37.9699844,282.324219 41.0507812,282.324219 C44.1652969,282.324219 46.8229844,281.223891 49.0234375,279.023438 C51.2238906,276.822984 52.3242188,274.165297 52.3242188,271.050781 C52.3242188,267.936266 51.2238906,265.278578 49.0234375,263.078125 L49.0234375,263.078125 Z M50.1914062,280.242188 C47.6862656,282.747328 44.6393906,284 41.0507812,284 C37.4284531,284 34.3476562,282.747328 31.8085938,280.242188 C29.2695312,277.770766 28,274.707031 28,271.050781 C28,267.462172 29.2695312,264.398438 31.8085938,261.859375 C34.3815781,259.286391 37.4621719,258 41.0507812,258 C44.6054688,258 47.6523438,259.286391 50.1914062,261.859375 C52.7304688,264.466078 54,267.530016 54,271.050781 C54,274.639391 52.7304688,277.703125 50.1914062,280.242188 L50.1914062,280.242188 Z" id="Page-1-Copy-3" transform="translate(41.000000, 271.000000) scale(1, -1) rotate(-180.000000) translate(-41.000000, -271.000000) "></path>
            </g>
        </g>
    </g>
</svg>