<?xml version="1.0" encoding="UTF-8"?>
<svg width="64px" height="22px" viewBox="0 0 64 22" version="1.1" xmlns="http://www.w3.org/2000/svg" xmlns:xlink="http://www.w3.org/1999/xlink">
    <!-- Generator: Sketch 46.2 (44496) - http://www.bohemiancoding.com/sketch -->
    <title>Fill 1</title>
    <desc>Created with Sketch.</desc>
    <defs></defs>
    <g id="Page-1" stroke="none" stroke-width="1" fill="none" fill-rule="evenodd">
        <g id="Flexi-vertical_Final-Copy-6" transform="translate(-250.000000, -251.000000)" fill="#333333">
            <path d="M313.492766,252.270474 C312.990774,250.891417 305.915526,250.783441 304.64255,251.247547 L285.570637,258.845624 L263.388266,253.939361 C261.963745,253.484727 258.521784,253.825703 258.247109,254.68572 C257.97054,255.547631 258.900646,256.616021 260.325167,257.07255 L274.769281,263.145708 L264.575999,267.207109 L254.988896,263.516993 C254.037952,263.212009 250.28343,264.447099 250.008755,265.305221 C249.732186,266.163344 256.093279,270.048574 257.044222,270.355452 L263.858055,272.486551 C264.117576,272.571795 264.468023,272.545274 264.843097,272.452453 C265.227641,272.51686 265.627341,272.490339 266.011886,272.35016 L309.791284,256.441745 C311.06426,255.979533 313.994758,253.651426 313.492766,252.270474" id="Fill-1"></path>
        </g>
    </g>
</svg>