<?xml version="1.0" encoding="UTF-8"?>
<svg width="29px" height="24px" viewBox="0 0 29 24" version="1.1" xmlns="http://www.w3.org/2000/svg" xmlns:xlink="http://www.w3.org/1999/xlink">
    <!-- Generator: Sketch 47.1 (45422) - http://www.bohemiancoding.com/sketch -->
    <title>Page 1 Copy 8</title>
    <desc>Created with Sketch.</desc>
    <defs></defs>
    <g id="final" stroke="none" stroke-width="1" fill="none" fill-rule="evenodd">
        <g id="Condition-of-travel-to-Italy" transform="translate(-64.000000, -855.000000)" fill="#333333">
            <path d="M90.9990548,875.183297 C90.9990548,876.171867 90.2041588,876.968215 89.2173913,876.968215 L87.326087,876.968215 L87.326087,860.903958 L89.2173913,860.903958 C90.2041588,860.903958 90.9990548,861.700031 90.9990548,862.688875 L90.9990548,875.183297 Z M66.0009452,862.688875 C66.0009452,861.700031 66.7958412,860.903958 67.7826087,860.903958 L69.673913,860.903958 L69.673913,876.968215 L67.7826087,876.968215 C66.7958412,876.968215 66.0009452,876.171867 66.0009452,875.183297 L66.0009452,862.688875 Z M76.0330813,858.871898 L80.9669187,858.871898 L80.9669187,856.373013 L76.0330813,856.373013 L76.0330813,858.871898 Z M71.647448,876.968215 L85.3251418,876.968215 L85.3251418,860.903958 L71.647448,860.903958 L71.647448,876.968215 Z M82.3922495,858.899358 L82.3922495,856.290633 C82.3922495,855.576666 81.8166352,855 81.1039698,855 L75.9508507,855 C75.2381853,855 74.6625709,855.576666 74.6625709,856.290633 L74.6625709,858.899358 L70.1124764,858.899358 L67.3988658,858.926818 C65.4801512,859.146501 64,860.766656 64,862.716335 L64,875.210758 C64,877.297463 65.6994329,879 67.7826087,879 L89.2173913,879 C91.3005671,879 93,877.297463 93,875.210758 L93,862.688875 C92.9725898,860.60162 91.2731569,858.899358 89.2173913,858.899358 L82.3922495,858.899358 Z" id="Page-1-Copy-8"></path>
        </g>
    </g>
</svg>