<?xml version="1.0" encoding="UTF-8"?>
<svg width="35px" height="41px" viewBox="0 0 35 41" version="1.1" xmlns="http://www.w3.org/2000/svg" xmlns:xlink="http://www.w3.org/1999/xlink">
    <!-- Generator: Sketch 47.1 (45422) - http://www.bohemiancoding.com/sketch -->
    <title>Group 5</title>
    <desc>Created with Sketch.</desc>
    <defs>
        <polygon id="path-1" points="6.47444299e-05 35.7891705 25.4635456 35.7891705 25.4635456 0.229573372 6.47444299e-05 0.229573372 6.47444299e-05 35.7891705"></polygon>
    </defs>
    <g id="final" stroke="none" stroke-width="1" fill="none" fill-rule="evenodd">
        <g id="Group-5">
            <g id="Group-3" transform="translate(0.000000, 4.750000)">
                <mask id="mask-2" fill="white">
                    <use xlink:href="#path-1"></use>
                </mask>
                <g id="Clip-2"></g>
                <path d="M0.139588991,2.07419585 C0.139588991,4.4218341 6.47444299e-05,5.4889424 6.47444299e-05,7.33980069 C6.47444299e-05,9.19492742 4.80895727,29.4158088 4.80895727,29.4158088 L12.7634579,29.4158088 L12.7634579,33.5108779 L7.69267418,33.5108779 C6.00575806,33.5108779 5.51758506,35.7892362 7.62177903,35.7892362 C9.72791533,35.7892362 18.4162941,35.7170012 20.5221067,35.7170012 C22.6292142,35.7170012 22.4187948,33.4386429 20.3809638,33.4386429 L15.4153898,33.4386429 L15.4153898,29.2690403 L23.7745431,29.2690403 C23.7745431,29.2690403 24.9836453,28.4133836 25.335855,26.1389654 C25.6867699,23.8612638 25.203129,23.2058952 25.203129,23.2058952 C25.203129,23.2058952 19.3696558,22.6480438 14.1742391,22.9333721 C8.98011717,23.2167304 8.68326396,23.4153767 8.68326396,23.4153767 L7.66418663,19.6926463 L13.8398341,19.6926463 C15.3804278,19.6926463 16.5047148,16.814409 13.6980438,16.814409 L6.64446186,16.814409 C6.64446186,16.814409 4.27870039,10.0512408 4.13917615,7.05709908 C3.99997562,4.07083756 3.99997562,1.64768088 3.99997562,1.64768088 C3.99997562,1.64768088 3.77498873,0.0745990783 1.75043041,0.242052995 C0.279436959,0.363210829 0.139265269,2.07288249 0.139265269,2.07288249 L0.139265269,2.07419585 L0.139588991,2.07419585 Z" id="Fill-1" fill="#333333" mask="url(#mask-2)"></path>
            </g>
            <g id="Group-6" transform="translate(11.875000, 0.000000)" fill="#B15A03">
                <path d="M6.87343054,15.1496544 L6.87343054,24.8380127 C6.87343054,25.2599309 7.21366252,25.6046889 7.62835059,25.6046889 L15.2435904,25.6046889 C15.6598971,25.6046889 16.0017477,25.2612442 16.0011003,24.837356 L16.0007765,15.1512961 L22.3525288,15.1512961 C22.7212484,15.1509677 22.8348748,14.8965035 22.6111828,14.6039516 L11.8438604,0.487586406 C11.6185498,0.190766129 11.250154,0.19437788 11.0274332,0.490213134 L0.258815858,14.5993548 C0.0341526868,14.8968318 0.151016383,15.1489977 0.516822412,15.149326 L6.87343054,15.1496544 Z" id="Fill-4"></path>
            </g>
        </g>
    </g>
</svg>