<?xml version="1.0" encoding="UTF-8"?>
<svg width="28px" height="26px" viewBox="0 0 28 26" version="1.1" xmlns="http://www.w3.org/2000/svg" xmlns:xlink="http://www.w3.org/1999/xlink">
    <!-- Generator: Sketch 47.1 (45422) - http://www.bohemiancoding.com/sketch -->
    <title>Page 1 Copy 2</title>
    <desc>Created with Sketch.</desc>
    <defs>
        <polygon id="path-1" points="9.9475983e-15 0 2.96916667 0 2.96916667 7.48157667 0 7.48157667 0 0"></polygon>
        <polygon id="path-3" points="0 25.6946667 27.874 25.6946667 27.874 0 0 0"></polygon>
    </defs>
    <g id="final" stroke="none" stroke-width="1" fill="none" fill-rule="evenodd">
        <g id="Condition-of-travel-to-Italy" transform="translate(-64.000000, -1541.000000)">
            <g id="Page-1-Copy-2" transform="translate(64.000000, 1541.000000)">
                <polygon id="Fill-1" fill="#333333" points="10 22.8959 12.8947333 22.8959 12.8947333 20 10 20"></polygon>
                <polygon id="Fill-2" fill="#333333" points="6 18.8977667 8.8959 18.8977667 8.8959 16 6 16"></polygon>
                <polygon id="Fill-3" fill="#333333" points="10 18.8977667 12.8947333 18.8977667 12.8947333 16 10 16"></polygon>
                <g id="Group-19" transform="translate(0.000000, 0.028000)">
                    <g id="Group-6" transform="translate(18.666667, 0.000000)">
                        <mask id="mask-2" fill="white">
                            <use xlink:href="#path-1"></use>
                        </mask>
                        <g id="Clip-5"></g>
                        <path d="M1.48446667,7.4816 C2.30486667,7.4816 2.96916667,6.818 2.96916667,5.99876667 L2.96916667,1.48376667 C2.96916667,0.6636 2.30556667,0 1.48446667,0 C0.666166667,0 0,0.662666667 0,1.48376667 L0,5.99876667 C0.000933333333,6.818 0.666166667,7.4816 1.48446667,7.4816" id="Fill-4" fill="#333333" mask="url(#mask-2)"></path>
                    </g>
                    <path d="M26.2437,17.7987 C26.2322667,18.2887 26.0087333,18.5967 25.4305333,18.6111667 L23.0864667,18.6111667 C22.2079667,18.6205 21.7515667,19.0636 21.7382667,19.9575 L21.7382667,23.0613 C21.7011667,23.5919 21.4704,23.8765667 20.9253333,23.8765667 L1.92966667,23.8765667 C1.7675,23.8765667 1.63286667,23.7431 1.63286667,23.5797667 L1.63286667,9.75103333 C1.63286667,9.58676667 1.7675,9.4533 1.92966667,9.4533 L25.9471333,9.4533 C26.1095333,9.4533 26.2441667,9.58793333 26.2441667,9.75103333 L26.2437,17.7987 Z M27.3569333,3 L22.5535333,3 L22.5535333,5.81353333 C22.5535333,7.0824 21.5224333,8.11163333 20.2528667,8.11163333 C18.9830667,8.11163333 17.9536,7.08216667 17.9536,5.81353333 L17.9536,3 L9.9239,3 L9.9239,5.81353333 C9.9239,7.0824 8.89466667,8.11163333 7.62463333,8.11163333 C6.35483333,8.11163333 5.32373333,7.08216667 5.32373333,5.81353333 L5.32373333,3 L0.518466667,3 C0.232866667,3 0,3.2338 0,3.51846667 L0,24.9891 C0,25.2747 0.232866667,25.5094333 0.518466667,25.5094333 L21.5506667,25.5094333 C22.0126667,25.5075667 22.4060667,25.3486667 22.7329667,25.0502333 L27.5382333,19.4831333 C27.8044667,19.2253 27.8737667,18.9399333 27.8737667,18.5848 L27.8737667,3.51893333 C27.8749333,3.2345 27.6418333,3.00046667 27.3569333,3.00046667 L27.3569333,3 Z" id="Fill-7" fill="#333333"></path>
                    <mask id="mask-4" fill="white">
                        <use xlink:href="#path-3"></use>
                    </mask>
                    <g id="Clip-10"></g>
                    <polygon id="Fill-9" fill="#333333" mask="url(#mask-4)" points="10 14.8970667 12.8947333 14.8970667 12.8947333 12 10 12"></polygon>
                    <path d="M7.48563333,7.4816 C8.30276667,7.4816 8.9701,6.818 8.9701,5.99876667 L8.9701,1.48376667 C8.9701,0.6636 8.3037,0 7.48563333,0 C6.66523333,0 6,0.662666667 6,1.48376667 L6,5.99876667 C6.00023333,6.818 6.66453333,7.4816 7.48563333,7.4816" id="Fill-11" fill="#333333" mask="url(#mask-4)"></path>
                    <polygon id="Fill-12" fill="#333333" mask="url(#mask-4)" points="6 22.8959 8.8959 22.8959 8.8959 20 6 20"></polygon>
                    <polygon id="Fill-13" fill="#333333" mask="url(#mask-4)" points="18 18.8977667 20.8975333 18.8977667 20.8975333 16 18 16"></polygon>
                    <polygon id="Fill-14" fill="#333333" mask="url(#mask-4)" points="18 14.8970667 20.8975333 14.8970667 20.8975333 12 18 12"></polygon>
                    <polygon id="Fill-15" fill="#333333" mask="url(#mask-4)" points="18 22.8959 20.8975333 22.8959 20.8975333 20 18 20"></polygon>
                    <polygon id="Fill-16" fill="#333333" mask="url(#mask-4)" points="14 22.8959 16.8961333 22.8959 16.8961333 20 14 20"></polygon>
                    <polygon id="Fill-17" fill="#333333" mask="url(#mask-4)" points="14 14.8970667 16.8961333 14.8970667 16.8961333 12 14 12"></polygon>
                    <polygon id="Fill-18" fill="#333333" mask="url(#mask-4)" points="14 18.8977667 16.8961333 18.8977667 16.8961333 16 14 16"></polygon>
                </g>
            </g>
        </g>
    </g>
</svg>