<?xml version="1.0" encoding="UTF-8"?>
<svg width="25px" height="20px" viewBox="0 0 25 20" version="1.1" xmlns="http://www.w3.org/2000/svg" xmlns:xlink="http://www.w3.org/1999/xlink">
    <!-- Generator: Sketch 47.1 (45422) - http://www.bohemiancoding.com/sketch -->
    <title>earn-miles_2x</title>
    <desc>Created with Sketch.</desc>
    <defs></defs>
    <g id="final" stroke="none" stroke-width="1" fill="none" fill-rule="evenodd">
        <g id="Fare-brand-Saver" transform="translate(-137.000000, -592.000000)" fill="#333333">
            <path d="M144.964007,595.084875 L145.478748,595.662572 L159.083349,612 L162,612 L146.293969,593.304476 C145.75494,592.800878 145.082637,592.475974 144.36369,592.371632 C142.690782,591.971842 141.355673,591.86723 140.417558,592.193059 C140.068177,592.312997 139.943996,592.459586 139.987106,592.637493 C140.08362,593.018626 140.899698,595.292544 142.435342,599.459247 C144.919379,599.620187 147.085382,601.264619 147.9809,603.669441 C148.876418,606.074262 148.337406,608.798948 146.600883,610.645377 C146.766887,611.089145 146.936108,611.539575 147.109833,612 L157.153071,612 L154.108379,607.992769 C152.066144,605.307512 150.00139,602.595601 147.931488,599.803066 C146.761723,598.323983 145.673255,596.777904 144.671248,595.172163 C144.676994,595.123526 144.661685,595.074746 144.629425,595.0389 C144.584385,594.817016 144.541919,594.683753 144.541919,594.639109 C144.705956,594.761898 144.848678,594.912627 144.964007,595.084875 L144.964007,595.084875 Z M142.044139,600.819866 L142.032557,600.819866 C139.251202,600.822993 136.998491,603.159649 137.000001,606.039958 C137.00151,608.920266 139.256669,611.254388 142.038026,611.254388 C144.819384,611.254388 147.074543,608.920266 147.076052,606.039958 C147.077562,603.159649 144.824851,600.822993 142.043496,600.819866 L142.044139,600.819866 Z M145.54309,606.744757 C145.542382,606.897323 145.422751,607.020614 145.275425,607.020613 L142.982898,607.020613 L142.982898,609.397366 C142.983586,609.470927 142.955805,609.541711 142.905755,609.593916 C142.855706,609.646121 142.787556,609.675401 142.716519,609.67522 L141.365324,609.67522 C141.217896,609.674121 141.098942,609.550043 141.098946,609.397366 L141.098946,607.01928 L138.808993,607.01928 C138.738063,607.019634 138.669911,606.990749 138.619575,606.938997 C138.569238,606.887244 138.540854,606.816879 138.540684,606.743425 L138.540684,605.344159 C138.541393,605.191333 138.661415,605.067935 138.808993,605.068304 L141.09959,605.068304 L141.09959,602.691551 C141.099586,602.538873 141.218539,602.414795 141.365968,602.413697 L142.717163,602.413697 C142.788087,602.413517 142.856138,602.442706 142.906168,602.494766 C142.956199,602.546827 142.984057,602.617439 142.983541,602.690885 L142.983541,605.066305 L145.274782,605.066305 C145.345823,605.065773 145.41414,605.09458 145.464616,605.146351 C145.515091,605.198123 145.543564,605.26859 145.543734,605.34216 L145.543734,606.741426 L145.543734,606.741426 L145.54309,606.744757 Z" id="earn-miles_2x"></path>
        </g>
    </g>
</svg>