<?xml version="1.0" encoding="UTF-8"?>
<svg width="42px" height="30px" viewBox="0 0 42 30" version="1.1" xmlns="http://www.w3.org/2000/svg" xmlns:xlink="http://www.w3.org/1999/xlink">
    <!-- Generator: Sketch 47.1 (45422) - http://www.bohemiancoding.com/sketch -->
    <title>controls copy</title>
    <desc>Created with Sketch.</desc>
    <defs></defs>
    <g id="final" stroke="none" stroke-width="1" fill="none" fill-rule="evenodd">
        <g id="Errors" transform="translate(-139.000000, -820.000000)" fill-rule="nonzero" fill="#333333">
            <g id="controls-copy" transform="translate(160.500000, 835.000000) rotate(-90.000000) translate(-160.500000, -835.000000) translate(146.000000, 814.000000)">
                <g id="Group">
                    <g id="Group-2">
                        <path d="M3,0 C2.448,0 2,0.3725 2,0.833333333 L2,34.1666667 C2,34.6275 2.448,35 3,35 C3.552,35 4,34.6275 4,34.1666667 L4,0.833333333 C4,0.3725 3.552,0 3,0 Z" id="Shape"></path>
                        <path d="M14,0 C13.448,0 13,0.2235 13,0.5 L13,20.5 C13,20.7765 13.448,21 14,21 C14.552,21 15,20.7765 15,20.5 L15,0.5 C15,0.2235 14.552,0 14,0 Z" id="Shape-Copy"></path>
                        <path d="M25,7.59999847 C24.448,7.59999847 24,7.95653419 24,8.39761752 L24,40.3023794 C24,40.7434628 24.448,41.0999985 25,41.0999985 C25.552,41.0999985 26,40.7434628 26,40.3023794 L26,8.39761752 C26,7.95653419 25.552,7.59999847 25,7.59999847 Z" id="Shape"></path>
                        <path d="M14,8 C13.448,8 13,8.35653571 13,8.79761905 L13,40.702381 C13,41.1434643 13.448,41.5 14,41.5 C14.552,41.5 15,41.1434643 15,40.702381 L15,8.79761905 C15,8.35653571 14.552,8 14,8 Z" id="Shape"></path>
                        <circle id="Oval" stroke="#333333" cx="3.5" cy="36.5" r="3.5"></circle>
                        <circle id="Oval" stroke="#333333" cx="14.086" cy="24.086" r="3.5"></circle>
                        <circle id="Oval" stroke="#333333" cx="25.5" cy="4.5" r="3.5"></circle>
                    </g>
                </g>
            </g>
        </g>
    </g>
</svg>