<?xml version="1.0" encoding="UTF-8"?>
<svg width="12px" height="14px" viewBox="0 0 12 14" version="1.1" xmlns="http://www.w3.org/2000/svg" xmlns:xlink="http://www.w3.org/1999/xlink">
    <!-- Generator: Sketch 47.1 (45422) - http://www.bohemiancoding.com/sketch -->
    <title>Lock Copy 7</title>
    <desc>Created with Sketch.</desc>
    <defs></defs>
    <g id="final" stroke="none" stroke-width="1" fill="none" fill-rule="evenodd">
        <g id="Fare-brand-Saver" transform="translate(-313.000000, -656.000000)" fill="#333333">
            <g id="Icons-/-Table-/-Lock" transform="translate(309.000000, 657.000000)">
                <g id="lock" transform="translate(4.705882, -1.153846)">
                    <path d="M1.77000483,4.61538462 L1.77000483,3.46063008 C1.69854574,2.24732019 2.35417228,1.09663615 3.47398695,0.469986921 C4.59380162,-0.156662307 5.99443368,-0.156662307 7.11424835,0.469986921 C8.23406301,1.09663615 8.88968955,2.24732019 8.81823046,3.46063008 L8.81823046,4.61538462 L7.64321567,4.61538462 L7.64321567,3.46063008 C7.69229371,2.65071857 7.25542331,1.88201954 6.50809305,1.46331539 C5.76076278,1.04461124 4.82560938,1.04461124 4.07827912,1.46331539 C3.33094885,1.88201954 2.89407845,2.65071857 2.9431565,3.46063008 L2.9431565,4.61538462 L1.77000483,4.61538462 Z M0,5.77038528 L0,13.8461538 L10.5882353,13.8461538 L10.5882353,5.76923077 L0,5.76923077 L0,5.77038528 Z"></path>
                </g>
            </g>
        </g>
    </g>
</svg>