<?xml version="1.0" encoding="UTF-8"?>
<svg width="28px" height="15px" viewBox="0 0 28 15" version="1.1" xmlns="http://www.w3.org/2000/svg" xmlns:xlink="http://www.w3.org/1999/xlink">
    <!-- Generator: Sketch 47.1 (45422) - http://www.bohemiancoding.com/sketch -->
    <title>refund-fees_2x copy</title>
    <desc>Created with Sketch.</desc>
    <defs></defs>
    <g id="final" stroke="none" stroke-width="1" fill="none" fill-rule="evenodd">
        <g id="Condition-of-travel-to-Italy" transform="translate(-64.000000, -1636.000000)" fill="#333333">
            <path d="M91.4065596,1636 L64.5978912,1636 C64.2695818,1636.0004 64.0028476,1636.26818 64,1636.60024 L64,1650.39976 C64.0044381,1650.73114 64.2702426,1650.99799 64.5978912,1651 L91.4065596,1651 C91.7343077,1651 92,1650.73126 92,1650.39976 L92,1636.60024 C92,1636.26874 91.7343077,1636 91.4065596,1636 L91.4065596,1636 Z M90.2107773,1644.74775 C90.2104888,1644.97324 90.0452997,1645.16374 89.8242993,1645.19343 C87.9552804,1645.43979 86.4822923,1646.92412 86.2317597,1648.81363 C86.1970694,1649.03805 86.0060614,1649.20355 85.7814868,1649.20378 L70.222964,1649.20378 C69.9985786,1649.20581 69.8077941,1649.03857 69.7778837,1648.81363 C69.5220501,1646.92427 68.0480172,1645.44165 66.1786679,1645.19343 C65.9576675,1645.16374 65.7924784,1644.97324 65.7921899,1644.74775 L65.7921899,1642.2545 C65.7928493,1642.02929 65.9579465,1641.83923 66.1786679,1641.80957 C68.0466007,1641.56183 69.5202072,1640.08148 69.7778837,1638.19388 C69.8053906,1637.96685 69.9968357,1637.79677 70.222964,1637.79847 L85.7814868,1637.79847 C86.0083559,1637.79746 86.2008925,1637.96654 86.2317597,1638.19388 C86.4836582,1640.08187 87.9564635,1641.56417 89.8242993,1641.80957 C90.0450207,1641.83923 90.2101179,1642.02929 90.2107773,1642.2545 L90.2107773,1644.74775 L90.2107773,1644.74775 Z M78.003709,1638.20063 C75.8524877,1638.20063 74.1189,1640.57083 74.1189,1643.5015 C74.1189,1646.43217 75.8524877,1648.80312 78.003709,1648.80312 C80.1549303,1648.80312 81.888518,1646.42917 81.888518,1643.503 C81.888518,1640.57683 80.1549303,1638.20063 78.003709,1638.20063 L78.003709,1638.20063 Z M79.7699359,1646.46444 C79.7687622,1646.58396 79.7206376,1646.69811 79.636172,1646.78172 C79.5517063,1646.86532 79.4378352,1646.91151 79.319663,1646.91011 L77.1061305,1646.91011 C76.8620471,1646.91013 76.663491,1646.7113 76.6610502,1646.46444 L76.6610502,1646.27911 C76.6600611,1646.15907 76.7065164,1646.0436 76.7900925,1645.95836 C76.8736687,1645.87312 76.9874424,1645.82518 77.1061305,1645.82518 L77.3917236,1645.82518 L77.3917236,1641.51471 L76.9681556,1641.75855 C76.8444356,1641.82961 76.695167,1641.83875 76.5638743,1641.78331 C76.4304892,1641.72663 76.3333423,1641.60703 76.3042442,1641.46369 L76.2493509,1641.20783 C76.2075027,1641.01106 76.2998792,1640.8101 76.4756001,1640.71564 L77.5452763,1640.14016 C77.6100831,1640.10263 77.6834959,1640.08296 77.7581731,1640.08313 L78.5118423,1640.08313 C78.755827,1640.08754 78.9525682,1640.28653 78.9569226,1640.53331 L78.9569226,1645.81843 L79.3152122,1645.81843 C79.561674,1645.81921 79.7621877,1646.01935 79.7662269,1646.26861 L79.7662269,1646.45393 L79.7662269,1646.45393 L79.7699359,1646.46444 Z" id="refund-fees_2x-copy"></path>
        </g>
    </g>
</svg>