<?xml version="1.0" encoding="UTF-8" standalone="no"?>
<svg width="17px" height="17px" viewBox="0 0 17 17" version="1.1" xmlns="http://www.w3.org/2000/svg" xmlns:xlink="http://www.w3.org/1999/xlink">
    <!-- Generator: Sketch 40.1 (33804) - http://www.bohemiancoding.com/sketch -->
    <title>Line Copy 4</title>
    <desc>Created with Sketch.</desc>
    <defs></defs>
    <g id="final" stroke="none" stroke-width="1" fill="none" fill-rule="evenodd">
        <g id="Hold-My-fare-72-hours" transform="translate(-524.000000, -1806.000000)" fill="#333333">
            <path d="M531.460155,1813.46016 L522.524437,1813.46016 C521.984834,1813.46016 521.528175,1813.90787 521.528175,1814.46016 C521.528175,1815.01629 521.974217,1815.46016 522.524437,1815.46016 L531.460155,1815.46016 L531.460155,1824.39587 C531.460155,1824.93548 531.90787,1825.39214 532.460155,1825.39214 C533.01629,1825.39214 533.460155,1824.94609 533.460155,1824.39587 L533.460155,1815.46016 L542.395873,1815.46016 C542.935476,1815.46016 543.392136,1815.01244 543.392136,1814.46016 C543.392136,1813.90402 542.946094,1813.46016 542.395873,1813.46016 L533.460155,1813.46016 L533.460155,1804.52444 C533.460155,1803.98483 533.01244,1803.52817 532.460155,1803.52817 C531.90402,1803.52817 531.460155,1803.97422 531.460155,1804.52444 L531.460155,1813.46016 Z" id="Line-Copy-4" transform="translate(532.460155, 1814.460155) rotate(-315.000000) translate(-532.460155, -1814.460155) "></path>
        </g>
    </g>
</svg>