<?xml version="1.0" encoding="UTF-8"?>
<svg width="28px" height="29px" viewBox="0 0 28 29" version="1.1" xmlns="http://www.w3.org/2000/svg" xmlns:xlink="http://www.w3.org/1999/xlink">
    <!-- Generator: Sketch 47.1 (45422) - http://www.bohemiancoding.com/sketch -->
    <title>Icon Seat Selection Copy</title>
    <desc>Created with Sketch.</desc>
    <defs></defs>
    <g id="final" stroke="none" stroke-width="1" fill="none" fill-rule="evenodd">
        <g id="Condition-of-travel-to-Italy" transform="translate(-64.000000, -1151.000000)" fill="#333333">
            <g id="Icons-/-Labels-/-Seat-Selection" transform="translate(59.000000, 1151.000000)">
                <path d="M14.9764724,7.99623529 L22.9049874,7.99623529 L22.9049874,0 L14.9764724,0 L14.9764724,7.99623529 Z M24.7215817,17.6470588 L32.7053501,17.6470588 L32.7053501,9.65059765 L24.7215817,9.65059765 L24.7215817,17.6470588 Z M26.538627,15.88224 L30.8883048,15.88224 L30.8883048,11.4705318 L26.538627,11.4705318 L26.538627,15.88224 Z M14.9764724,17.6470588 L22.9049874,17.6470588 L22.9049874,9.65059765 L14.9764724,9.65059765 L14.9764724,17.6470588 Z M5.28571429,17.6470588 L13.2692571,17.6470588 L13.2692571,9.65059765 L5.28571429,9.65059765 L5.28571429,17.6470588 Z M24.7215817,28.2352941 L32.7053501,28.2352941 L32.7053501,20.2388329 L24.7215817,20.2388329 L24.7215817,28.2352941 Z M14.9764724,28.2352941 L22.9049874,28.2352941 L22.9049874,20.2388329 L14.9764724,20.2388329 L14.9764724,28.2352941 Z M5.28571429,28.2352941 L13.2692571,28.2352941 L13.2692571,20.2388329 L5.28571429,20.2388329 L5.28571429,28.2352941 Z M7.10275962,26.41536 L11.4524373,26.41536 L11.4524373,22.0587671 L7.10275962,22.0587671 L7.10275962,26.41536 Z" id="Icon-seat-selection"></path>
            </g>
        </g>
    </g>
</svg>