<?xml version="1.0" encoding="UTF-8"?>
<svg width="25px" height="19px" viewBox="0 0 25 19" version="1.1" xmlns="http://www.w3.org/2000/svg" xmlns:xlink="http://www.w3.org/1999/xlink">
    <!-- Generator: Sketch 47.1 (45422) - http://www.bohemiancoding.com/sketch -->
    <title>Checkmark Copy 3</title>
    <desc>Created with Sketch.</desc>
    <defs></defs>
    <g id="final" stroke="none" stroke-width="1" fill="none" fill-rule="evenodd">
        <g id="Condition-of-travel-to-Italy" transform="translate(-646.000000, -1075.000000)" fill="#32753A">
            <g id="Icons-/-Table-/-Checkmark" transform="translate(646.000000, 1074.000000)">
                <g id="CUGO-Check">
                    <path d="M21.3897929,1.81000601 C21.010633,1.42347136 20.4053967,1.42586584 20.0290422,1.81538952 L9.32535202,13.0030982 C8.94799073,13.3928691 8.34122746,13.3928691 7.96386616,13.0030982 L4.0587836,8.94008416 C3.68143641,8.55173812 3.07611523,8.55173812 2.69876803,8.94008416 L0.294113467,11.447263 C-0.0782885821,11.8415161 -0.0782885821,12.4757953 0.294113467,12.8700485 L6.40536183,19.2710452 C6.85790175,19.6980386 7.43690956,19.9494537 8.0454671,19.983207 L9.16509073,19.983207 C9.77457271,19.9499462 10.3547415,19.6991331 10.8088717,19.2725834 L23.7878311,5.70690019 C23.9680762,5.51926263 24.0694117,5.26421474 24.0694117,4.99819919 C24.0694117,4.73218363 23.9680762,4.47713574 23.7878311,4.28949818 L21.3897929,1.81000601 Z" id="CUGO_Check"></path>
                </g>
            </g>
        </g>
    </g>
</svg>