<?xml version="1.0" encoding="UTF-8"?>
<svg width="25px" height="28px" viewBox="0 0 25 28" version="1.1" xmlns="http://www.w3.org/2000/svg" xmlns:xlink="http://www.w3.org/1999/xlink">
    <!-- Generator: Sketch 47.1 (45422) - http://www.bohemiancoding.com/sketch -->
    <title>upgrade@2x copy 4</title>
    <desc>Created with Sketch.</desc>
    <defs></defs>
    <g id="final" stroke="none" stroke-width="1" fill="none" fill-rule="evenodd">
        <g id="Fare-brand-Saver" transform="translate(-361.000000, -585.000000)" fill="#333333">
            <g id="upgrade@2x-copy-4" transform="translate(361.000000, 585.000000)">
                <path d="M0.861193331,5.10049695 C0.861193331,6.6887824 0.764299392,7.41044846 0.764299392,8.66231816 C0.764299392,9.91418785 4.09279999,23.5925114 4.09279999,23.5925114 L9.59637573,23.5925114 L9.59637573,26.3621278 L6.08881513,26.3621278 C4.92143696,26.3621278 4.5834709,27.9023539 6.03998059,27.9023539 C7.49649028,27.9023539 13.5108909,27.8542945 14.9689509,27.8542945 C16.4270109,27.8542945 16.2812824,26.3132933 14.8712818,26.3132933 L11.43426,26.3132933 L11.43426,23.4932921 L17.2199909,23.4932921 C17.8391863,22.9529982 18.2262166,22.1947632 18.3005521,21.3763533 C18.5431745,19.8353521 18.2090842,19.3919654 18.2090842,19.3919654 C15.6708592,19.1712696 13.121295,19.1099123 10.5753921,19.2082545 C6.98023937,19.3997169 6.77714968,19.5338181 6.77714968,19.5338181 L6.0717618,17.016126 L10.3459472,17.016126 C11.4125557,17.016126 12.1908078,15.0697206 10.247503,15.0697206 L5.36404847,15.0697206 C5.36404847,15.0697206 3.72692847,10.4963266 3.63003453,8.47085573 C3.5331406,6.44538483 3.53391575,4.81214059 3.53391575,4.81214059 C3.45667644,4.47770052 3.24802164,4.18845053 2.95502653,4.00964914 C2.66203142,3.83084774 2.30938051,3.77755875 1.97663636,3.86180484 C1.35989021,3.96231577 0.895976642,4.4781335 0.861193331,5.10204726 L0.861193331,5.10204726 L0.861193331,5.10049695 Z M14.038769,10.8366181 L14.038769,17.3889739 C14.0408984,17.6760015 14.2741857,17.9075581 14.5612212,17.9075502 L19.8322515,17.9075502 C20.1201918,17.9084097 20.3545463,17.6761353 20.3562539,17.3881987 L20.3562539,10.8373933 L24.746712,10.8373933 C25.0017369,10.8373933 25.0800272,10.6653097 24.9249969,10.467646 L17.4757909,0.918554543 C17.412592,0.824401236 17.3066454,0.767915137 17.1932481,0.767915137 C17.0798509,0.767915137 16.9739042,0.824401236 16.9107054,0.918554543 L9.45762361,10.4645454 C9.30259331,10.6653097 9.38010846,10.835843 9.63590846,10.8366181 L14.0356684,10.8366181 L14.038769,10.8366181 Z" id="upgrade_2x"></path>
            </g>
        </g>
    </g>
</svg>