<?xml version="1.0" encoding="UTF-8"?>
<svg width="59px" height="35px" viewBox="0 0 59 35" version="1.1" xmlns="http://www.w3.org/2000/svg" xmlns:xlink="http://www.w3.org/1999/xlink">
    <!-- Generator: Sketch 47.1 (45422) - http://www.bohemiancoding.com/sketch -->
    <title>Page 1</title>
    <desc>Created with Sketch.</desc>
    <defs></defs>
    <g id="final" stroke="none" stroke-width="1" fill="none" fill-rule="evenodd">
        <g id="Sort-&amp;-Filter" transform="translate(-111.000000, -396.000000)" fill="#333333">
            <g id="Page-1" transform="translate(110.000000, 392.000000)">
                <polygon id="Fill-1" points="3.53662857 38.1542571 58.1622 38.1542571 58.1622 35.5532 3.53662857 35.5532"></polygon>
                <path d="M58.43886,5.46825714 C57.9921457,4.24105714 51.6960029,4.14497143 50.5632029,4.55797143 L33.5914314,11.3193714 L13.8517171,6.95337143 C12.58406,6.5488 9.52111714,6.85222857 9.27668857,7.61754286 C9.03057429,8.38454286 9.85826,9.33528571 11.1259171,9.74154286 L23.9794886,15.1459429 L14.90866,18.7601143 L6.37726,15.4763429 C5.53103143,15.2049429 2.18994571,16.3040286 1.94551714,17.0676571 C1.69940286,17.8312857 7.36003143,21.2886857 8.20626,21.5617714 L14.2697743,23.4582 C14.5007171,23.5340571 14.8125743,23.5104571 15.1463457,23.4278571 C15.4885457,23.4851714 15.8442314,23.4615714 16.1864314,23.3368286 L55.1449743,9.1802 C56.2777743,8.76888571 58.8855743,6.69714286 58.43886,5.46825714" id="Fill-2" transform="translate(30.213759, 13.920916) rotate(7.000000) translate(-30.213759, -13.920916) "></path>
            </g>
        </g>
    </g>
</svg>