<?xml version="1.0" encoding="UTF-8"?>
<svg width="64px" height="24px" viewBox="0 0 64 24" version="1.1" xmlns="http://www.w3.org/2000/svg" xmlns:xlink="http://www.w3.org/1999/xlink">
    <!-- Generator: Sketch 47.1 (45422) - http://www.bohemiancoding.com/sketch -->
    <title>Group</title>
    <desc>Created with Sketch.</desc>
    <defs></defs>
    <g id="final" stroke="none" stroke-width="1" fill="none" fill-rule="evenodd">
        <g id="Sort-&amp;-Filter" transform="translate(-576.000000, -407.000000)" fill-rule="nonzero" fill="#1D1D1B">
            <g id="Group" transform="translate(576.000000, 407.000000)">
                <path d="M16.7184516,2.91550827 C16.3948387,6.31776914 15.4234839,10.0784648 13.8131613,14.1934213 C12.288,18.1163778 11.524129,20.5711604 11.5220645,21.5723778 C11.5220645,22.3038561 11.6830968,22.9586387 12.0046452,23.5184648 L8.94967742,23.5142909 L3.91845161,5.98855175 C3.31767742,3.93081262 2.90270968,2.92176914 2.66580645,2.96820392 C3.00593548,4.11498653 3.17574194,6.19359523 3.17367742,9.20716044 L3.16283871,19.9033344 C3.16077419,21.8332474 3.45083871,23.0348126 4.0283871,23.510117 L1.23148387,23.510117 C1.03948387,23.0348126 0.943483871,21.8285517 0.943483871,19.9012474 L0.960516129,4.39255175 C0.960516129,3.98194305 0.918193548,3.43046479 0.831483871,2.73707349 C0.685419355,1.52455175 0.406193548,0.717943051 0,0.330812617 L3.88903226,0.33498653 C4.90012903,0.764899573 5.63664516,1.78542131 6.10632258,3.39133436 L10.6255484,19.0007257 C10.7778065,16.3784648 11.188129,14.0045517 11.8529032,11.8826387 C12.1765161,10.8647257 12.8345806,9.26037783 13.8203871,7.06959523 C14.6590968,5.20907349 15.1876129,3.74872566 15.4012903,2.68750827 C15.636129,1.47029088 15.6067097,0.678812617 15.3058065,0.313073486 L19.1014194,0.315160443 C19.6175484,0.794116965 19.8714839,1.99620392 19.8694194,3.92559523 L19.8549677,19.92003 C19.8529032,21.8447257 20.24,23.0515083 21.008,23.5262909 L17.6965161,23.522117 C17.1375484,23.0238561 16.8629677,21.8238561 16.8629677,19.9158561 L16.88,4.37950827 C16.8794839,4.09776914 16.8263226,3.61046479 16.7184516,2.91550827 Z" id="Shape"></path>
                <path d="M25.9014194,3.07359523 C25.5463226,2.73342131 25.3687742,2.30350827 25.3734194,1.78385609 C25.3734194,1.26629088 25.5468387,0.838464791 25.904,0.502464791 C26.2580645,0.164899573 26.6910968,-0.00257868765 27.2056774,3.00080021e-05 C27.6985806,3.00080021e-05 28.1218065,0.173247399 28.4748387,0.521769138 C28.8299355,0.866116965 29.0059355,1.28976914 29.0059355,1.78803001 C29.003871,2.28629088 28.8263226,2.70785609 28.4701935,3.05429088 C28.1192258,3.4012474 27.696,3.57237783 27.2010323,3.57237783 C26.6885161,3.57237783 26.2529032,3.40542131 25.9014194,3.07359523 Z M29.5303226,23.5362039 L26.5063226,23.534117 C25.9525161,22.9716822 25.6727742,21.7226387 25.6769032,19.7974213 L25.6898065,6.43203001 L28.7107097,6.43411696 L28.6983226,19.7995083 C28.6947097,21.662117 28.9734194,22.9116822 29.5303226,23.5362039 Z" id="Shape"></path>
                <path d="M36.9254194,23.5424648 L33.9354839,23.5403778 C33.5948387,23.2153344 33.3450323,22.4791604 33.1969032,21.3287257 C33.1122581,20.6358561 33.0699355,20.1266387 33.072,19.8036822 L33.0864516,3.84159523 C33.0864516,2.01916044 32.8092903,0.851508269 32.2529032,0.331856095 L35.1809032,0.333943051 C35.7987097,0.853595225 36.1094194,2.02385609 36.1073548,3.84368218 L36.0949677,19.8062909 C36.0913548,21.6923778 36.3705806,22.9372474 36.9254194,23.5424648 Z" id="Shape"></path>
                <path d="M47.7667097,22.2568996 C49.1597419,22.2589865 50.3525161,21.5958561 51.3388387,20.2763778 L51.3047742,22.4217691 C50.64,22.9398561 49.6629677,23.3202039 48.3762581,23.5555083 C47.6903226,23.6854213 47.1215484,23.7522039 46.6730323,23.750117 C44.4196129,23.7715083 42.5894194,22.9242039 41.1741935,21.2092474 C39.8451613,19.6054213 39.1850323,17.6311604 39.1870968,15.2885517 C39.1891613,12.9062909 39.7476129,10.8699431 40.8650323,9.18003001 C42.1553548,7.22976914 43.9205161,6.25620392 46.1734194,6.25829088 C47.5236129,6.25829088 48.6802581,6.58750827 49.6459355,7.23759523 C50.7814194,7.97585609 51.3486452,8.99637783 51.3465806,10.2965517 C51.3465806,11.4255952 50.8732903,12.4826387 49.9287742,13.4791604 C49.2856774,14.1511604 48.116129,14.9635083 46.4211613,15.9130735 C44.8129032,16.8031604 43.7192258,17.6076822 43.1390968,18.3193344 C44.1021935,20.9395083 45.6428387,22.2527257 47.7667097,22.2568996 Z M43.3063226,10.322117 C42.7690323,11.7725517 42.500129,13.2568996 42.4985806,14.7709865 C42.4985806,15.5108126 42.5744516,16.1802039 42.7230968,16.78803 C43.108129,16.358117 43.7300645,15.8833344 44.5914839,15.3568996 C45.5963871,14.7318561 46.2523871,14.2915083 46.5527742,14.0311604 C47.088,13.5730735 47.5174194,13.0555083 47.8394839,12.4716822 C48.2926452,11.6050735 48.5187097,10.8010735 48.5187097,10.0633344 C48.5207742,9.32976914 48.3153548,8.7052474 47.9091613,8.19394305 C47.5009032,7.68472566 46.9445161,7.42855175 46.2374194,7.42855175 C44.9956129,7.42855175 44.0154839,8.3932474 43.3063226,10.322117 Z" id="Shape"></path>
                <path d="M59.4467097,16.4802039 C59.1458065,16.2428126 58.3421935,15.7205517 57.0348387,14.918117 C55.0632258,13.7014213 54.0810323,12.1742909 54.0810323,10.3304648 C54.0830968,9.09446479 54.5553548,8.09950827 55.4988387,7.33985609 C56.3788387,6.62559523 57.4415484,6.26872566 58.6849032,6.27081262 C60.1197419,6.27081262 61.515871,6.72785609 62.8645161,7.63985609 L62.8624516,9.85307349 C61.9184516,8.39846479 60.6787097,7.66959523 59.1339355,7.66959523 C57.7181935,7.66959523 57.0095484,8.28576914 57.0095484,9.52176914 C57.0074839,10.6727257 57.6825806,11.6348126 59.0343226,12.4137691 C60.5114839,13.286117 61.5819355,14.054117 62.2461935,14.7276822 C63.2980645,15.7904648 63.8203871,16.9607257 63.8203871,18.2395083 C63.8183226,20.1047257 63.0967742,21.5462909 61.6603871,22.56003 C60.5218065,23.3619431 59.3672258,23.7615952 58.1863226,23.7615952 C56.4046452,23.7595083 55.0549677,23.3322039 54.1341935,22.4875083 L54.1682581,20.2779431 C54.64,20.9066387 55.083871,21.3626387 55.5034839,21.6422909 C55.9225806,21.9266387 56.4934194,22.1217691 57.2216774,22.2308126 L57.7378065,22.2349865 C58.6797419,22.2349865 59.4389677,21.9010735 60.0056774,21.2447257 C60.5749677,20.5836822 60.8609032,19.7624648 60.8609032,18.7915083 C60.859871,18.0135952 60.388129,17.2414213 59.4467097,16.4802039 Z" id="Shape"></path>
            </g>
        </g>
    </g>
</svg>