<?xml version="1.0" encoding="UTF-8"?>
<svg width="35px" height="30px" viewBox="0 0 35 30" version="1.1" xmlns="http://www.w3.org/2000/svg" xmlns:xlink="http://www.w3.org/1999/xlink">
    <!-- Generator: Sketch 47.1 (45422) - http://www.bohemiancoding.com/sketch -->
    <title>Shape</title>
    <desc>Created with Sketch.</desc>
    <defs></defs>
    <g id="final" stroke="none" stroke-width="1" fill="none" fill-rule="evenodd">
        <g id="Sort-&amp;-Filter-Copy" transform="translate(-122.000000, -246.000000)" fill-rule="nonzero" fill="#333333">
            <path d="M138.102199,260.629868 C137.609577,259.567921 137.337338,258.355811 137.337338,257.014062 C137.337338,255.672314 137.609577,254.325165 138.102199,253.061199 C138.593741,251.796153 139.305667,250.613211 140.186122,249.598797 C141.065496,248.585464 142.113399,247.737419 143.275816,247.145408 C144.439312,246.550156 145.718402,246.210937 147.06015,246.210937 C148.401898,246.210937 149.680988,246.483176 150.844485,246.974718 C152.007981,247.467341 153.054804,248.179267 153.934179,249.058641 C154.812473,249.938016 155.526559,250.985919 156.018101,252.149415 C156.511804,253.311831 156.782963,254.592002 156.782963,255.93375 C156.782963,257.275498 156.510724,258.555668 156.018101,259.718085 C155.526559,260.881581 154.814633,261.929484 153.934179,262.808859 C153.055885,263.688233 140.661459,274.886752 139.497963,275.379375 L139.497963,275.379375 L139.497963,275.379375 C138.334466,274.886752 125.940041,263.688233 125.060667,262.808859 C124.181292,261.929484 123.469366,260.881581 122.976744,259.718085 C122.485202,258.555668 122.212963,257.275498 122.212963,255.93375 C122.212963,254.592002 122.485202,253.311831 122.976744,252.149415 C123.469366,250.985919 124.180212,249.938016 125.060667,249.058641 C125.940041,248.179267 126.987944,247.467341 128.151441,246.974718 C129.313857,246.483176 130.592947,246.210937 131.935775,246.210937 C133.278604,246.210937 134.557694,246.550156 135.72011,247.143247 C136.883607,247.737419 137.930429,248.584384 138.810884,249.597717 C139.690258,250.612131 140.402184,251.795073 140.894807,253.060119 C141.386349,254.325165 141.658588,255.672314 141.658588,257.014062 C141.658588,258.355811 141.386349,259.567921 140.894807,260.629868 C140.402184,261.691815 139.692419,262.60468 138.810884,263.350095" id="Shape"></path>
        </g>
    </g>
</svg>