 <svg width="43px" height="38px" viewBox="0 0 43 38" version="1.1" xmlns="http://www.w3.org/2000/svg" xmlns:xlink="http://www.w3.org/1999/xlink">
                    <!-- Generator: Sketch 47.1 (45422) - http://www.bohemiancoding.com/sketch -->
                    <title>Page 1</title>
                    <desc>Created with Sketch.</desc>
                    <defs></defs>
                    <g id="final" stroke="none" stroke-width="1" fill="none" fill-rule="evenodd">
                        <g id="Sort-&amp;-Filter" transform="translate(-590.000000, -235.000000)" fill="#C60C30">
                            <g id="Page-1" transform="translate(590.000000, 235.000000)">
                                <g id="Group-3" transform="translate(0.000000, 0.396571)">
                                    <path d="M41.9218097,14.853171 L38.4984548,14.7616226 L37.6079387,14.7796548 C35.7977774,6.38355806 28.3504548,0.0625580645 19.4217129,0.0625580645 C9.13916452,0.0625580645 0.779132258,8.42536452 0.779132258,18.7051387 C0.779132258,28.9876871 9.13916452,37.3491065 19.4217129,37.3491065 C26.719229,37.3491065 33.0332935,33.1253968 36.093229,27.0027516 L32.9986161,27.0027516 C30.1966806,31.5732355 25.1670677,34.6387194 19.4217129,34.6387194 C10.6344548,34.6387194 3.48813226,27.4923968 3.48813226,18.7051387 C3.48813226,9.92065484 10.6344548,2.77433226 19.4217129,2.77433226 C26.8718097,2.77433226 33.1276161,7.92184839 34.8601,14.8420742 L34.4259387,14.853171 L31.0802613,14.853171 C30.7057452,14.853171 30.5836806,15.0973 30.804229,15.3983 L36.093229,23.1202677 C36.3193258,23.4212677 36.6827452,23.4212677 36.9060677,23.1202677 L42.1922935,15.3983 C42.4156161,15.0973 42.2935516,14.853171 41.9218097,14.853171" id="Fill-2"></path>
                                </g>
                                <path d="M24.837771,15.2971806 L21.4088677,18.7288581 C21.4490935,18.8911484 21.4754484,19.0603742 21.4754484,19.2309871 C21.4754484,20.3919871 20.5363839,21.3366 19.376771,21.3366 C18.5930613,21.3366 17.9161581,20.7997935 17.5541258,20.275471 L14.6550935,20.275471 C14.3651903,20.275471 14.1293839,20.0133097 14.1293839,19.7247935 L14.1293839,18.7260839 C14.1293839,18.4375677 14.3651903,18.1767935 14.6550935,18.1767935 L17.5541258,18.1767935 C17.9161581,17.6496968 18.5930613,17.1156645 19.376771,17.1156645 C19.5834484,17.1156645 19.7804161,17.1656 19.9704484,17.2210839 L23.3702226,13.8240839 C23.5727387,13.6215677 23.907029,13.6215677 24.1123194,13.8240839 L24.837771,14.556471 C25.0444484,14.7589871 25.0444484,15.0932774 24.837771,15.2971806 M19.4086742,8.44630968 C13.4927065,8.44630968 8.69196452,13.2470516 8.69196452,19.1699548 C8.69196452,25.091471 13.4927065,29.8922129 19.4086742,29.8922129 C25.3357387,29.8922129 30.1364806,25.091471 30.1364806,19.1699548 C30.1364806,13.2470516 25.3357387,8.44630968 19.4086742,8.44630968" id="Fill-4"></path>
                            </g>
                        </g>
                    </g>
                </svg>